<?xml version="1.0" encoding="UTF-8"?>
<svg width="69px" height="69px" viewBox="0 0 69 69" version="1.1" xmlns="http://www.w3.org/2000/svg" xmlns:xlink="http://www.w3.org/1999/xlink">
    <!-- Generator: Sketch Beta 48.2 (47327) - http://www.bohemiancoding.com/sketch -->
    <title>metoohack-icon-pos</title>
    <desc>Created with Sketch Beta.</desc>
    <defs></defs>
    <g id="Page-1" stroke="none" stroke-width="1" fill="none" fill-rule="evenodd">
        <g id="metoohack-icon-pos">
            <g id="Group-Copy">
                <rect id="Rectangle" fill="#AA36E0" x="0" y="0" width="69" height="69" rx="22"></rect>
                <path d="M47.801017,38.2307692 C48.5783336,38.4017103 49.0345778,38.6239303 49.1697633,38.8974359 C49.3049488,39.1709415 49.254255,39.4700838 49.0176804,39.7948718 C48.7811058,40.1196597 48.4431471,40.4529897 48.0037942,40.7948718 C47.5644413,41.1367538 47.141993,41.4273492 46.7364365,41.6666667 C46.3646764,41.5982903 45.9675749,41.6581187 45.5451203,41.8461538 C45.1226656,42.034189 44.7255641,42.2478621 44.353804,42.4871795 C43.9144511,42.4188031 43.4666559,42.3846154 43.0104048,42.3846154 L41.6163114,42.3846154 C41.3797367,43.0683795 41.1178188,43.7264926 40.8305496,44.3589744 C40.5432804,44.9914562 40.1630769,45.5299123 39.6899276,45.974359 C39.6561313,46.1453 39.6983761,46.2991446 39.8166634,46.4358974 C39.9349507,46.5726503 40.0278893,46.7264949 40.0954821,46.8974359 C39.723722,47.2051297 39.461804,47.5299128 39.3097203,47.8717949 C39.1576366,48.2136769 39.056249,48.5726477 39.0055545,48.9487179 C38.9548599,49.3247882 38.921064,49.683759 38.9041658,50.025641 C38.8872677,50.3675231 38.811227,50.6923062 38.6760415,51 C38.3718741,51.1367528 38.1015071,51.3076913 37.8649325,51.5128205 C37.6283579,51.7179497 37.4002358,51.9230759 37.1805594,52.1282051 C36.9608829,52.3333344 36.7158629,52.5128197 36.4454919,52.6666667 C36.1751209,52.8205136 35.8371622,52.9316236 35.4316057,53 C34.7218818,52.7606826 34.1473521,52.5299156 33.7079992,52.3076923 C33.2686464,52.085469 32.7617083,51.8376082 32.18717,51.5641026 C31.7140207,50.9487149 31.4521028,50.2991487 31.4014082,49.6153846 C31.3507136,48.9316205 31.4267543,48.2478667 31.6295326,47.5641026 C31.8323108,46.8803385 32.1026778,46.2307723 32.4406415,45.6153846 C32.7786053,44.9999969 33.099666,44.4529938 33.4038334,43.974359 C33.640408,43.4957241 33.8431832,43.0683779 34.0121651,42.6923077 C33.2348485,42.6581195 32.4490945,42.6666664 31.6548797,42.7179487 C30.8606649,42.769231 30.0411151,42.8461533 29.1962058,42.9487179 C28.9934275,43.5299174 28.7484075,44.0854674 28.4611383,44.6153846 C28.1738691,45.1453018 27.8274615,45.6153826 27.421905,46.025641 C27.3881086,46.1965821 27.4388024,46.3504267 27.5739879,46.4871795 C27.7091734,46.6239323 27.810561,46.7777769 27.8781538,46.9487179 C27.5063936,47.2564118 27.2444757,47.5811949 27.092392,47.9230769 C26.9403083,48.264959 26.8389207,48.6153828 26.7882261,48.974359 C26.7375316,49.3333351 26.6952867,49.6923059 26.6614903,50.0512821 C26.627694,50.4102582 26.5432043,50.7264944 26.4080188,51 C26.1038514,51.1367528 25.8419335,51.3076913 25.622257,51.5128205 C25.4025806,51.7179497 25.1744585,51.9230759 24.9378839,52.1282051 C24.7013092,52.3333344 24.4478402,52.5128197 24.1774692,52.6666667 C23.9070982,52.8205136 23.5691396,52.9316236 23.1635831,53 C22.4538592,52.7606826 21.8877784,52.5299156 21.4653237,52.3076923 C21.042869,52.085469 20.5274821,51.8376082 19.9191473,51.5641026 C19.4459981,50.9829031 19.1925291,50.3418838 19.1587327,49.6410256 C19.1249363,48.9401674 19.209426,48.2478667 19.4122042,47.5641026 C19.6149825,46.8803385 19.8853494,46.2307723 20.2233132,45.6153846 C20.5612769,44.9999969 20.8823377,44.4529938 21.186505,43.974359 C20.7809485,43.974359 20.3669492,43.9829059 19.9444945,44 C19.5220398,44.0170941 19.1080404,44.0427349 18.7024839,44.0769231 C18.1955383,43.8034174 17.8237838,43.4615405 17.5872091,43.0512821 C17.3506345,42.6410236 17.1901041,42.2051305 17.1056132,41.7435897 C17.0211223,41.282049 16.9873264,40.8119682 17.0042246,40.3333333 C17.0211228,39.8546985 17.0295717,39.3760708 17.0295717,38.8974359 C17.1647572,38.5213656 17.3928793,38.2307703 17.7139449,38.025641 C18.0350105,37.8205118 18.3814181,37.6324795 18.7531782,37.4615385 C19.7670695,37.4273503 20.6795579,37.3846156 21.4906709,37.3333333 C22.3017839,37.282051 23.0959868,37.2222226 23.8733034,37.1538462 C23.9070998,37.0854697 23.9324467,37.0000005 23.9493448,36.8974359 C23.966243,36.7948713 23.9915899,36.7094021 24.0253863,36.6410256 C23.9915899,36.1623908 24.1014265,35.5384654 24.3548993,34.7692308 C24.6083721,33.9999962 24.904086,33.1709446 25.2420497,32.2820513 C24.6675113,32.3846159 24.1774713,32.4700851 23.7719148,32.5384615 C23.3663583,32.6068379 23.0283996,32.6752133 22.7580286,32.7435897 C21.9469156,32.7094015 21.347039,32.5897446 20.9583806,32.3846154 C20.5697223,32.1794862 20.2740085,31.9316254 20.0712302,31.6410256 C19.868452,31.3504259 19.7332685,31.0256428 19.6656758,30.6666667 C19.598083,30.3076905 19.4966954,29.923079 19.3615099,29.5128205 C19.6318809,29.2393149 19.8093092,28.8632503 19.8938002,28.3846154 C19.9782911,27.9059805 19.8684545,27.5470097 19.5642872,27.3076923 C19.9022509,27.2393159 20.2064137,27.0427367 20.4767847,26.7179487 C20.7471557,26.3931608 20.8485433,26.1453 20.7809506,25.974359 C21.8286382,25.8034179 22.9101059,25.7094018 24.0253863,25.6923077 C25.1406667,25.6752136 26.2052365,25.6153851 27.2191277,25.5128205 C27.5908879,24.8290564 27.9203976,23.9316295 28.2076668,22.8205128 C28.4949359,21.7093962 28.8159967,20.5982962 29.1708586,19.4871795 C29.5257206,18.3760628 29.9650668,17.3931667 30.4889106,16.5384615 C31.0127544,15.6837564 31.6802228,15.170941 32.4913358,15 C33.5052271,15.9572697 34.2740831,16.9743536 34.7979269,18.0512821 C35.3217707,19.1282105 35.752668,20.4017021 36.0906317,21.8717949 C35.9892426,22.2136769 35.8371612,22.6410231 35.634383,23.1538462 L34.9246626,24.9487179 C35.7357756,24.9145297 36.5468764,24.8974359 37.3579894,24.8974359 C38.1691024,24.8974359 38.9633053,24.8803421 39.7406219,24.8461538 C40.0447893,24.0940133 40.3320542,23.1880395 40.6024252,22.1282051 C40.8727962,21.0683708 41.185408,20.0341931 41.5402699,19.025641 C41.8951318,18.017089 42.3260291,17.1367559 42.8329748,16.3846154 C43.3399204,15.6324749 43.9820419,15.170941 44.7593585,15 C45.7394533,15.9230815 46.4998604,16.9316185 47.0406024,18.025641 C47.5813444,19.1196636 48.0037927,20.4017021 48.3079601,21.8717949 C48.2065709,22.2136769 48.0460406,22.6666638 47.8263641,23.2307692 C47.6066877,23.7948746 47.3616677,24.4358938 47.0912967,25.1538462 C47.6320387,25.1880344 48.1558746,25.2478628 48.6628202,25.3333333 C49.1697658,25.4188038 49.6260101,25.5384608 50.0315666,25.6923077 C50.4371231,25.8461546 50.7581838,26.0512808 50.9947584,26.3076923 C51.231333,26.5641038 51.3665165,26.8974338 51.4003129,27.3076923 C52.0086476,27.3760687 52.422647,27.4957256 52.6423234,27.6666667 C52.8619999,27.8376077 52.9802854,28.0427338 52.9971836,28.2820513 C53.0140818,28.5213687 52.954939,28.7863233 52.8197535,29.0769231 C52.684568,29.3675228 52.5662825,29.6495713 52.4648934,29.9230769 C51.5185949,30.3333354 50.3779843,30.6495715 49.0430275,30.8717949 C47.7080707,31.0940182 46.2801953,31.2564097 44.7593585,31.3589744 C44.3875984,32.4529969 44.0665376,33.4358931 43.7961666,34.3076923 C43.5257956,35.1794915 43.3737142,35.8376046 43.3399178,36.2820513 L45.5704674,36.2820513 C45.536671,36.5897451 45.6549566,36.8119651 45.9253276,36.9487179 C46.1956986,37.0854708 46.4829634,37.1965808 46.7871308,37.2820513 C47.0912982,37.3675218 47.3616651,37.4700849 47.5982398,37.5897436 C47.8348144,37.7094023 47.9024061,37.9230754 47.801017,38.2307692 Z M31.0212009,36.5897436 C31.6971284,36.5213672 32.4913313,36.4700856 33.4038334,36.4358974 C34.3163355,36.4017092 35.2626198,36.3675215 36.2427147,36.3333333 C36.3103074,35.7863221 36.4877357,35.0854744 36.7750049,34.2307692 C37.0622741,33.3760641 37.3917838,32.4871841 37.7635439,31.5641026 L34.8993155,31.5641026 C34.0037115,31.5641026 33.1841618,31.5811964 32.4406415,31.6153846 C32.0688814,32.675219 31.7562696,33.6239274 31.5027968,34.4615385 C31.249324,35.2991495 31.1056916,35.9230749 31.0718952,36.3333333 L31.0212009,36.5897436 Z" id="#METOO" fill="#FFFFFF"></path>
            </g>
        </g>
    </g>
</svg>