<?xml version="1.0" encoding="UTF-8"?>
<svg width="316px" height="63px" viewBox="0 0 316 63" version="1.1" xmlns="http://www.w3.org/2000/svg" xmlns:xlink="http://www.w3.org/1999/xlink">
    <!-- Generator: Sketch Beta 48.2 (47327) - http://www.bohemiancoding.com/sketch -->
    <title>metoohack-single-neg</title>
    <desc>Created with Sketch Beta.</desc>
    <defs></defs>
    <g id="Page-1" stroke="none" stroke-width="1" fill="none" fill-rule="evenodd">
        <g id="metoohack-single-neg" fill="#FFFFFF">
            <g id="metoohack-logo">
                <path d="M262.800649,30.3339844 C262.747914,30.9668 262.800648,31.5732393 262.958852,32.1533203 C263.117056,32.7334013 263.314808,33.3002902 263.552113,33.8540039 C263.789419,34.4077176 264.013538,34.9746065 264.224477,35.5546875 C264.435415,36.1347685 264.593617,36.7148408 264.699086,37.2949219 C264.804555,38.0332068 264.804555,38.837398 264.699086,39.7075195 C264.593617,40.5776411 264.409048,41.4213826 264.145375,42.2387695 C263.881702,43.0561564 263.538932,43.7944303 263.117055,44.4536133 C262.695178,45.1127963 262.194206,45.6005844 261.614125,45.9169922 C260.87584,46.8662157 259.979365,47.6044896 258.924672,48.1318359 C257.869979,48.6591823 256.894403,49.2919885 255.997914,50.0302734 C255.417833,50.3994159 254.771844,50.6630851 254.059926,50.8212891 C253.348008,50.979493 252.622918,51.1376945 251.884633,51.2958984 C251.304552,51.6123063 250.619012,51.9418928 249.827992,52.284668 C249.036973,52.6274431 248.219598,52.9438462 247.375844,53.2338867 C246.53209,53.5239272 245.688348,53.7348626 244.844594,53.8666992 C244.00084,53.9985358 243.262566,54.0380862 242.62975,53.9853516 C241.047711,54.5654326 239.505246,54.947753 238.002309,55.1323242 C236.499372,55.3168955 234.745971,55.1982443 232.742055,54.7763672 C230.843608,55.0400404 229.090207,54.9609396 227.481801,54.5390625 C225.873394,54.1171854 224.449581,53.4448288 223.210317,52.5219727 C221.971053,51.5991165 220.890009,50.4917057 219.967152,49.199707 C219.044296,47.9077084 218.292839,46.5498118 217.712758,45.1259766 C217.290881,42.1201022 217.396349,39.3911255 218.029164,36.9389648 C218.66198,34.4868041 219.571639,32.2192487 220.758168,30.1362305 C221.944697,28.0532122 223.302594,26.1284268 224.831899,24.3618164 C226.361203,22.595206 227.837751,20.8681725 229.261586,19.1806641 C229.577994,19.2861333 229.82848,19.2729499 230.013051,19.1411133 C230.197622,19.0092767 230.369007,18.8247082 230.527211,18.5874023 C230.685415,18.3500965 230.8568,18.1259776 231.041371,17.9150391 C231.225942,17.7041005 231.450061,17.5722659 231.713735,17.5195312 C232.082877,16.7285117 232.623399,16.1352559 233.335317,15.7397461 C234.047234,15.3442363 234.614123,14.7773474 235.036,14.0390625 C235.510612,13.9335932 235.906116,13.7753917 236.222524,13.5644531 C236.538931,13.3535146 236.842151,13.1162123 237.132192,12.8525391 C237.422232,12.5888659 237.725452,12.3383801 238.04186,12.1010742 C238.358267,11.8637683 238.727404,11.6923833 239.149281,11.5869141 L239.149281,10.7167969 C240.098505,10.2949198 240.797228,9.80713167 241.245473,9.25341797 C241.693717,8.69970426 242.234239,8.02734771 242.867055,7.23632812 C243.341667,7.18359349 243.723987,7.15722656 244.014027,7.15722656 C244.304068,7.15722656 244.739122,7.10449271 245.319203,6.99902344 C245.74108,6.2607385 246.123401,5.7070331 246.466176,5.33789062 C246.808951,4.96874815 247.323106,4.5732443 248.008656,4.15136719 C248.641472,4.46777502 249.340196,4.67871041 250.104848,4.78417969 C250.8695,4.88964896 251.541857,5.23241897 252.121938,5.8125 C252.174672,6.33984639 252.332874,6.74853371 252.596547,7.03857422 C252.86022,7.32861473 253.150256,7.59228397 253.466664,7.82958984 C253.783072,8.06689572 254.086292,8.31738149 254.376332,8.58105469 C254.666373,8.84472788 254.864125,9.21386481 254.969594,9.68847656 C255.180532,9.7412112 255.325551,9.71484428 255.404652,9.609375 C255.483754,9.50390572 255.628773,9.4775388 255.839711,9.53027344 C255.997915,10.2685584 256.182483,10.7563465 256.393422,10.9936523 C256.604361,11.2309582 256.815296,11.6923794 257.026235,12.3779297 C256.762561,12.9052761 256.564809,13.445798 256.432973,13.9995117 C256.301136,14.5532254 255.97155,14.9619127 255.444203,15.2255859 C255.391469,15.5947284 255.496936,15.7924803 255.76061,15.8188477 C256.024283,15.845215 256.182484,15.9902331 256.235219,16.2539062 C256.287954,16.728518 256.208853,17.071288 255.997914,17.2822266 C257.263546,19.3388775 258.397323,21.5141487 259.399281,23.8081055 C260.40124,26.1020623 261.535017,28.2773335 262.800649,30.3339844 Z M252.912953,37.8486328 C253.123892,37.2685518 253.400745,36.7939472 253.74352,36.4248047 C254.086295,36.0556622 254.284047,35.5019568 254.336781,34.7636719 C254.073108,34.3417948 253.914907,34.0122082 253.862172,33.7749023 C253.809437,33.5375965 253.78307,33.1552761 253.78307,32.6279297 C252.622908,30.9931559 251.620965,29.2397555 250.777211,27.3676758 C249.933457,25.4955961 248.984248,23.7421957 247.929555,22.1074219 C247.824086,22.3183604 247.639517,22.5292958 247.375844,22.7402344 C247.112171,22.9511729 246.822135,22.8984391 246.505727,22.5820312 C246.400257,23.0039084 246.215689,23.307128 245.952016,23.4916992 C245.688343,23.6762705 245.398306,23.7553712 245.081899,23.7290039 C244.765491,23.7026366 244.435904,23.6235358 244.093129,23.4916992 C243.750354,23.3598626 243.447134,23.1884776 243.183461,22.9775391 C241.654157,24.1904358 240.124875,25.3769473 238.59557,26.5371094 C237.066266,27.6972714 235.695186,29.0419845 234.482289,30.5712891 C234.271351,30.6767583 234.139516,30.7163087 234.086781,30.6899414 C234.034047,30.6635741 233.875845,30.7031245 233.612172,30.8085938 C233.190295,31.8105519 232.67614,32.7202108 232.069692,33.5375977 C231.463243,34.3549846 230.869987,35.1855427 230.289906,36.0292969 C229.709825,36.8730511 229.208854,37.7695265 228.786977,38.71875 C228.3651,39.6679735 228.127797,40.7753843 228.075063,42.0410156 C228.971552,42.7793006 230.026228,43.2275383 231.239125,43.3857422 C232.452022,43.5439461 233.704451,43.570313 234.996449,43.4648438 C236.288448,43.3593745 237.55406,43.1879895 238.793324,42.9506836 C240.032588,42.7133777 241.17955,42.5947266 242.234242,42.5947266 C244.449097,42.0673802 246.347516,41.3686567 247.929555,40.4985352 C249.511594,39.6284136 251.17271,38.7451217 252.912953,37.8486328 Z M313.62249,30.3339844 C313.569756,30.9668 313.622489,31.5732393 313.780693,32.1533203 C313.938897,32.7334013 314.136649,33.3002902 314.373955,33.8540039 C314.611261,34.4077176 314.83538,34.9746065 315.046318,35.5546875 C315.257257,36.1347685 315.415458,36.7148408 315.520928,37.2949219 C315.626397,38.0332068 315.626397,38.837398 315.520928,39.7075195 C315.415458,40.5776411 315.23089,41.4213826 314.967217,42.2387695 C314.703544,43.0561564 314.360774,43.7944303 313.938896,44.4536133 C313.517019,45.1127963 313.016048,45.6005844 312.435967,45.9169922 C311.697682,46.8662157 310.801206,47.6044896 309.746514,48.1318359 C308.691821,48.6591823 307.716245,49.2919885 306.819756,50.0302734 C306.239675,50.3994159 305.593685,50.6630851 304.881768,50.8212891 C304.16985,50.979493 303.44476,51.1376945 302.706475,51.2958984 C302.126394,51.6123063 301.440854,51.9418928 300.649834,52.284668 C299.858814,52.6274431 299.04144,52.9438462 298.197685,53.2338867 C297.353931,53.5239272 296.51019,53.7348626 295.666435,53.8666992 C294.822681,53.9985358 294.084407,54.0380862 293.451592,53.9853516 C291.869553,54.5654326 290.327088,54.947753 288.82415,55.1323242 C287.321213,55.3168955 285.567813,55.1982443 283.563896,54.7763672 C281.665449,55.0400404 279.912049,54.9609396 278.303643,54.5390625 C276.695236,54.1171854 275.271422,53.4448288 274.032158,52.5219727 C272.792894,51.5991165 271.71185,50.4917057 270.788994,49.199707 C269.866138,47.9077084 269.114681,46.5498118 268.5346,45.1259766 C268.112722,42.1201022 268.21819,39.3911255 268.851006,36.9389648 C269.483821,34.4868041 270.39348,32.2192487 271.58001,30.1362305 C272.766539,28.0532122 274.124436,26.1284268 275.65374,24.3618164 C277.183045,22.595206 278.659592,20.8681725 280.083428,19.1806641 C280.399836,19.2861333 280.650321,19.2729499 280.834893,19.1411133 C281.019464,19.0092767 281.190849,18.8247082 281.349053,18.5874023 C281.507257,18.3500965 281.678642,18.1259776 281.863213,17.9150391 C282.047784,17.7041005 282.271903,17.5722659 282.535576,17.5195312 C282.904719,16.7285117 283.445241,16.1352559 284.157158,15.7397461 C284.869076,15.3442363 285.435965,14.7773474 285.857842,14.0390625 C286.332453,13.9335932 286.727957,13.7753917 287.044365,13.5644531 C287.360773,13.3535146 287.663993,13.1162123 287.954033,12.8525391 C288.244074,12.5888659 288.547293,12.3383801 288.863701,12.1010742 C289.180109,11.8637683 289.549246,11.6923833 289.971123,11.5869141 L289.971123,10.7167969 C290.920346,10.2949198 291.61907,9.80713167 292.067314,9.25341797 C292.515559,8.69970426 293.056081,8.02734771 293.688896,7.23632812 C294.163508,7.18359349 294.545829,7.15722656 294.835869,7.15722656 C295.12591,7.15722656 295.560964,7.10449271 296.141045,6.99902344 C296.562922,6.2607385 296.945242,5.7070331 297.288018,5.33789062 C297.630793,4.96874815 298.144948,4.5732443 298.830498,4.15136719 C299.463314,4.46777502 300.162037,4.67871041 300.926689,4.78417969 C301.691342,4.88964896 302.363698,5.23241897 302.943779,5.8125 C302.996514,6.33984639 303.154715,6.74853371 303.418389,7.03857422 C303.682062,7.32861473 303.972098,7.59228397 304.288506,7.82958984 C304.604914,8.06689572 304.908133,8.31738149 305.198174,8.58105469 C305.488214,8.84472788 305.685966,9.21386481 305.791435,9.68847656 C306.002374,9.7412112 306.147392,9.71484428 306.226494,9.609375 C306.305596,9.50390572 306.450614,9.4775388 306.661553,9.53027344 C306.819757,10.2685584 307.004325,10.7563465 307.215264,10.9936523 C307.426202,11.2309582 307.637138,11.6923794 307.848076,12.3779297 C307.584403,12.9052761 307.386651,13.445798 307.254814,13.9995117 C307.122978,14.5532254 306.793391,14.9619127 306.266045,15.2255859 C306.21331,15.5947284 306.318778,15.7924803 306.582451,15.8188477 C306.846124,15.845215 307.004326,15.9902331 307.05706,16.2539062 C307.109795,16.728518 307.030694,17.071288 306.819756,17.2822266 C308.085387,19.3388775 309.219165,21.5141487 310.221123,23.8081055 L313.62249,30.3339844 Z M303.734795,37.8486328 C303.945733,37.2685518 304.222586,36.7939472 304.565361,36.4248047 C304.908136,36.0556622 305.105888,35.5019568 305.158623,34.7636719 C304.89495,34.3417948 304.736748,34.0122082 304.684014,33.7749023 C304.631279,33.5375965 304.604912,33.1552761 304.604912,32.6279297 C303.44475,30.9931559 302.442807,29.2397555 301.599053,27.3676758 C300.755298,25.4955961 299.806089,23.7421957 298.751396,22.1074219 C298.645927,22.3183604 298.461359,22.5292958 298.197685,22.7402344 C297.934012,22.9511729 297.643976,22.8984391 297.327568,22.5820312 C297.222099,23.0039084 297.037531,23.307128 296.773857,23.4916992 C296.510184,23.6762705 296.220148,23.7553712 295.90374,23.7290039 C295.587332,23.7026366 295.257746,23.6235358 294.914971,23.4916992 C294.572196,23.3598626 294.268976,23.1884776 294.005303,22.9775391 C292.475998,24.1904358 290.946717,25.3769473 289.417412,26.5371094 C287.888108,27.6972714 286.517027,29.0419845 285.304131,30.5712891 C285.093192,30.6767583 284.961358,30.7163087 284.908623,30.6899414 C284.855888,30.6635741 284.697687,30.7031245 284.434014,30.8085938 C284.012137,31.8105519 283.497981,32.7202108 282.891533,33.5375977 C282.285085,34.3549846 281.691829,35.1855427 281.111748,36.0292969 C280.531667,36.8730511 280.030695,37.7695265 279.608818,38.71875 C279.186941,39.6679735 278.949639,40.7753843 278.896904,42.0410156 C279.793393,42.7793006 280.84807,43.2275383 282.060967,43.3857422 C283.273863,43.5439461 284.526292,43.570313 285.818291,43.4648438 C287.11029,43.3593745 288.375902,43.1879895 289.615166,42.9506836 C290.85443,42.7133777 292.001391,42.5947266 293.056084,42.5947266 C295.270939,42.0673802 297.169357,41.3686567 298.751396,40.4985352 L303.734795,37.8486328 Z M221.426073,16.0166016 C220.107707,16.0166016 218.683893,16.1088858 217.154588,16.293457 C215.625284,16.4780283 214.122369,16.6757802 212.645799,16.8867188 C211.591106,17.0449227 210.57598,17.1767573 209.600389,17.2822266 C208.624798,17.3876958 207.741506,17.4667966 206.950487,17.5195312 C206.581344,18.6796933 206.212207,19.7080033 205.843065,20.6044922 C205.473922,21.500981 205.078418,22.3710895 204.656541,23.2148438 C204.234664,24.1113326 203.852344,25.0209915 203.509569,25.9438477 C203.166794,26.8667038 202.837207,27.8554635 202.520799,28.9101562 C201.993453,29.7539105 201.558399,30.5317347 201.215623,31.2436523 C200.872848,31.95557 200.595996,32.7597611 200.385057,33.65625 C199.752241,34.4472696 199.277637,35.2778277 198.961229,36.1479492 C198.644821,37.0180708 198.407519,37.7695281 198.249315,38.4023438 L197.932909,39.3515625 C197.616501,39.6679703 197.431932,39.9184561 197.379198,40.1030273 C197.326463,40.2875986 197.194628,40.4589836 196.98369,40.6171875 C196.930955,41.1972685 196.746387,41.7773408 196.429979,42.3574219 C196.32451,42.6210951 196.245409,42.8715808 196.192674,43.1088867 C196.13994,43.3461926 196.113573,43.5175776 196.113573,43.6230469 C196.113573,44.1503933 195.981738,44.4931633 195.718065,44.6513672 C195.770799,44.9150404 195.770799,45.1918931 195.718065,45.4819336 C195.66533,45.7719741 195.612596,46.0488268 195.559862,46.3125 C195.401658,46.9453157 195.348924,47.4462872 195.401659,47.8154297 C195.559862,48.0263682 195.704881,48.2109367 195.836717,48.3691406 C195.968554,48.5273445 196.060838,48.7382799 196.113573,49.0019531 C196.42998,49.2128917 196.667283,49.3447263 196.825487,49.3974609 C197.036425,49.5556649 197.352828,49.7402333 197.774705,49.9511719 L198.486619,50.7421875 C198.750293,52.271492 198.51299,53.4843705 197.774705,54.3808594 C196.983686,55.3828175 195.638973,55.8837891 193.740526,55.8837891 L192.791307,55.8837891 C192.527634,55.6201159 192.369432,55.4091805 192.316698,55.2509766 C191.894821,55.0927726 191.55205,54.960938 191.288377,54.8554688 C191.024704,54.7499995 190.787402,54.5390641 190.576463,54.2226562 C189.890913,53.9062484 189.337208,53.6425792 188.91533,53.4316406 L188.203416,53.0361328 L188.203416,52.0869141 C187.834274,51.6123023 187.557421,51.0849638 187.37285,50.5048828 C187.188279,49.9248018 187.043261,49.3447295 186.937791,48.7646484 C186.832322,48.2900367 186.713671,47.841799 186.581834,47.4199219 C186.449998,46.9980448 186.278613,46.6289078 186.067674,46.3125 C185.962205,43.253891 186.252241,40.6699324 186.937791,38.5605469 C187.623342,36.4511613 188.335249,34.4209082 189.073534,32.4697266 C189.495411,31.4150338 189.917281,30.3471734 190.339159,29.2661133 C190.761036,28.1850532 191.130173,27.0644589 191.44658,25.9042969 L192.158494,25.1132812 C192.527637,24.269527 192.830857,23.5708035 193.068162,23.0170898 C193.305468,22.4633761 193.555954,21.8964873 193.819627,21.3164062 C193.977831,20.9472638 194.122849,20.5913103 194.254686,20.2485352 C194.386522,19.90576 194.505174,19.6025404 194.610643,19.3388672 C194.294235,19.3388672 194.004199,19.3520506 193.740526,19.378418 C193.476853,19.4047853 193.213183,19.4443357 192.94951,19.4970703 C192.633102,19.549805 192.343066,19.5893553 192.079393,19.6157227 C191.81572,19.64209 191.55205,19.6552734 191.288377,19.6552734 C190.919235,19.6552734 190.655566,19.6289065 190.497362,19.5761719 C189.917281,19.8398451 189.284474,19.9716797 188.598924,19.9716797 L187.807909,19.9716797 C187.649705,19.9716797 187.504687,19.9584962 187.37285,19.9321289 C187.241013,19.9057616 187.122362,19.8925781 187.016893,19.8925781 C186.489547,19.8925781 186.067676,19.9716789 185.751268,20.1298828 L183.140916,20.1298828 C183.035447,20.1298828 182.903612,20.1430663 182.745409,20.1694336 C182.587205,20.1958009 182.45537,20.2089844 182.349901,20.2089844 C181.980758,20.2089844 181.585254,20.169434 181.163377,20.090332 C180.7415,20.0112301 180.293262,19.8398451 179.818651,19.5761719 C179.185835,18.7324177 178.763964,18.28418 178.553026,18.2314453 L177.841112,17.2822266 C177.788377,16.9658187 177.709276,16.6625991 177.603807,16.3725586 C177.498338,16.0825181 177.39287,15.7529315 177.287401,15.3837891 C177.076462,14.8564427 176.87871,14.2895538 176.694139,13.6831055 C176.509568,13.0766571 176.417284,12.3515667 176.417284,11.5078125 C176.470018,11.0859354 176.575486,10.7695323 176.73369,10.5585938 C176.891894,10.3476552 177.023728,10.1630867 177.129198,10.0048828 L177.366502,8.81835938 L178.394823,8.89746094 L180.609666,8.89746094 C182.297175,8.89746094 184.011025,8.83154363 185.751268,8.69970703 C187.491511,8.56787043 189.284462,8.42285235 191.130174,8.26464844 C192.184867,8.15917916 193.252727,8.05371146 194.333787,7.94824219 C195.414848,7.84277291 196.535442,7.73730521 197.695604,7.63183594 C197.906542,7.15722419 198.117478,6.70898648 198.328416,6.28710938 L199.119432,5.89160156 C200.068655,5.83886692 200.741012,5.95751808 201.136522,6.24755859 C201.532032,6.53759911 201.861618,6.81445181 202.125291,7.078125 C203.285453,6.97265572 204.458782,6.85400457 205.645311,6.72216797 C206.83184,6.59033137 208.031535,6.41894637 209.244432,6.20800781 C211.03741,5.94433462 212.843544,5.7070323 214.662889,5.49609375 C216.482234,5.2851552 218.235634,5.1796875 219.923143,5.1796875 C220.661428,5.1796875 221.373335,5.20605442 222.058885,5.25878906 C222.744435,5.3115237 223.377242,5.39062447 223.957323,5.49609375 L224.748338,6.04980469 C224.906542,6.36621252 225.130661,6.65624868 225.420702,6.91992188 C225.710742,7.18359507 226.013962,7.44726431 226.330369,7.7109375 C226.963185,8.29101853 227.595991,8.97655854 228.228807,9.76757812 C228.861623,10.5585977 229.098925,11.7187424 228.940721,13.2480469 C228.518844,13.8808625 228.202441,14.2499995 227.991502,14.3554688 L227.279588,15.3046875 L226.488573,15.2255859 C226.172165,15.2255859 225.882129,15.2651363 225.618455,15.3442383 C225.354782,15.4233402 225.091113,15.5156245 224.82744,15.6210938 C224.616501,15.726563 224.405566,15.8188473 224.194627,15.8979492 C223.983689,15.9770512 223.746386,16.0429685 223.482713,16.0957031 C223.008101,16.0957031 222.625781,16.0825197 222.335741,16.0561523 C222.0457,16.029785 221.74248,16.0166016 221.426073,16.0166016 Z M173.435286,9.53027344 C173.48802,9.89941591 173.501204,10.1762686 173.474836,10.3608398 C173.448469,10.5454111 173.422102,10.7167961 173.395735,10.875 C173.369368,11.0332039 173.356184,11.2045889 173.356184,11.3891602 C173.356184,11.5737314 173.408918,11.8505841 173.514387,12.2197266 C172.40696,14.0127043 171.128164,15.2387662 169.677961,15.8979492 C168.227759,16.5571322 166.658927,17.0317368 164.971419,17.3217773 C163.28391,17.6118179 161.556877,17.9150375 159.790266,18.2314453 C158.023656,18.5478531 156.270255,19.2333932 154.530012,20.2880859 C153.844462,20.0244127 153.224839,20.0244127 152.671126,20.2880859 C152.117412,20.5517591 151.313221,20.6308599 150.258528,20.5253906 C149.94212,20.8417985 149.546616,21.0659173 149.072004,21.1977539 C148.597393,21.3295905 148.122788,21.4746086 147.648176,21.6328125 C147.859115,22.1074242 147.951399,22.5952123 147.925032,23.0961914 C147.898664,23.5971705 147.964582,24.0058578 148.122786,24.3222656 C149.968498,24.4804695 152.011935,24.4541026 154.253157,24.2431641 C156.494379,24.0322255 158.696017,23.9003909 160.858137,23.8476562 C160.910872,24.1113294 160.884505,24.2827144 160.779036,24.3618164 C160.673566,24.4409184 160.6472,24.5859364 160.699934,24.796875 C161.069077,25.0605482 161.438214,25.3901347 161.807356,25.7856445 C162.176498,26.1811543 162.545635,26.5634747 162.914778,26.9326172 C163.28392,27.3017597 163.666241,27.6049793 164.061751,27.8422852 C164.45726,28.079591 164.918682,28.1718753 165.446028,28.1191406 C165.656966,28.5410177 165.801985,29.0024389 165.881086,29.503418 C165.960188,30.004397 165.894271,30.5185521 165.683333,31.0458984 C164.839578,31.6259795 163.995837,32.2192352 163.152083,32.8256836 C162.308328,33.4321319 161.425036,33.9726539 160.50218,34.4472656 C159.579324,34.9218774 158.603748,35.3041978 157.575422,35.5942383 C156.547097,35.8842788 155.400136,36.00293 154.134504,35.9501953 L153.541243,35.9501953 C153.409406,35.9501953 153.238021,35.8710945 153.027083,35.7128906 C152.605205,35.9765638 152.01195,36.0556646 151.247297,35.9501953 C150.482645,35.844726 149.889389,35.9238268 149.467512,36.1875 C148.887431,35.9238268 148.188708,35.8051756 147.371321,35.831543 C146.553934,35.8579103 145.828844,35.7656261 145.196028,35.5546875 C144.352274,36.6621149 143.587633,37.8486265 142.902083,39.1142578 C142.216532,40.3798891 141.610093,41.7246023 141.082747,43.1484375 C142.875724,43.4121107 144.365456,43.5175784 145.551985,43.4648437 C146.738514,43.4121091 147.859109,43.3198249 148.913801,43.1879883 C149.968494,43.0561517 151.049538,42.9243171 152.156965,42.7924805 C153.264393,42.6606439 154.66184,42.6210935 156.349348,42.6738281 C157.404041,42.0937471 158.65647,41.7114267 160.106672,41.5268555 C161.556875,41.3422842 162.888405,41.0390646 164.101301,40.6171875 C164.523178,40.7753914 164.892315,41.0522441 165.208723,41.4477539 C165.525131,41.8432637 165.828351,42.2124006 166.118391,42.5551758 C166.408432,42.8979509 166.711651,43.2011706 167.028059,43.4648437 C167.344467,43.7285169 167.739971,43.8339846 168.214583,43.78125 C168.425521,43.9921886 168.570539,44.2426743 168.649641,44.5327148 C168.728743,44.8227554 168.79466,45.0996081 168.847395,45.3632812 C168.90013,45.6269544 168.992414,45.8510733 169.124251,46.0356445 C169.256087,46.2202158 169.480206,46.2861331 169.796614,46.2333984 C169.005594,47.9736415 168.095935,49.3051712 167.06761,50.2280273 C166.039284,51.1508835 164.865956,51.849607 163.54759,52.3242187 C162.229224,52.7988305 160.76586,53.1679674 159.157454,53.4316406 C157.549047,53.6953138 155.76928,54.0117169 153.818098,54.3808594 C153.343486,54.4863287 152.947983,54.4731452 152.631575,54.3413086 C152.315167,54.209472 151.94603,54.1435547 151.524153,54.1435547 C150.311256,54.4072279 148.861075,54.6445302 147.173567,54.8554687 C145.486059,55.0664073 143.772208,55.1455081 142.031965,55.0927734 C140.291722,55.0400388 138.630606,54.8159199 137.048567,54.4204102 C135.466528,54.0249004 134.174549,53.3261769 133.17259,52.3242187 C132.750713,51.9550763 132.473861,51.520022 132.342024,51.019043 C132.210187,50.5180639 131.854234,50.1357435 131.274153,49.8720703 C131.221418,49.18652 131.115951,48.4218792 130.957747,47.578125 C130.799543,46.7343708 130.641341,45.8510788 130.483137,44.9282227 C130.324933,44.0053665 130.206282,43.0957076 130.12718,42.1992187 C130.048078,41.3027299 130.087629,40.4853553 130.245833,39.7470703 C130.404036,38.9560507 130.733623,38.2441438 131.234602,37.6113281 C131.735581,36.9785125 131.906966,36.2929724 131.748762,35.5546875 C132.012435,35.5019529 132.170637,35.3569348 132.223372,35.1196289 C132.276106,34.882323 132.487042,34.7900388 132.856184,34.8427734 C133.172592,33.8935499 133.515362,32.9970745 133.884504,32.1533203 C134.253647,31.3095661 134.635967,30.4921915 135.031477,29.7011719 C135.426987,28.9101523 135.822491,28.1059611 136.218001,27.2885742 C136.61351,26.4711873 136.995831,25.5615284 137.364973,24.5595703 C136.626688,23.87402 136.086166,23.1225627 135.743391,22.3051758 C135.400616,21.4877889 135.15013,20.6704142 134.991926,19.8530273 C134.833722,19.0356404 134.701888,18.1918989 134.596419,17.3217773 C134.490949,16.4516558 134.306381,15.5683639 134.042708,14.671875 C134.570054,13.8808554 135.216044,13.2348658 135.980696,12.7338867 C136.745348,12.2329077 137.575906,11.8242203 138.472395,11.5078125 C139.368884,11.1914047 140.34446,10.9277354 141.399153,10.7167969 C142.453846,10.5058583 143.561256,10.268556 144.721419,10.0048828 C146.830804,9.31933251 148.716039,8.79199403 150.37718,8.42285156 C152.038321,8.05370909 153.673071,7.75048947 155.281477,7.51318359 C156.889884,7.27587772 158.564183,7.05175887 160.304426,6.84082031 C162.044669,6.62988176 164.022189,6.31347867 166.237044,5.89160156 C166.711655,6.36621331 167.159893,6.60351562 167.58177,6.60351562 C167.792709,6.12890388 168.043194,5.9838858 168.333235,6.16845703 C168.623275,6.35302827 168.741927,6.20801019 168.689192,5.73339844 C169.216538,6.62988729 169.888895,7.38134462 170.706282,7.98779297 C171.523669,8.59424131 172.433328,9.10839633 173.435286,9.53027344 Z M119.183757,52.640625 C118.65641,52.9042982 118.168622,53.1416005 117.720378,53.3525391 C117.272133,53.5634776 116.757978,53.6689453 116.177897,53.6689453 C114.121246,52.1396408 113.053386,49.4765815 112.974284,45.6796875 C112.895182,41.8827935 113.699373,37.0576465 115.386882,31.2041016 C115.650555,31.0458976 115.782389,30.7294946 115.782389,30.2548828 L115.070475,29.4638672 C114.859537,29.4638672 114.661785,29.4902341 114.477214,29.5429688 C114.292642,29.5957034 114.147624,29.7802719 114.042155,30.0966797 C112.671054,31.0986378 111.16814,32.1401313 109.533366,33.2211914 C107.898592,34.3022515 106.197926,35.3041946 104.431315,36.2270508 C102.664705,37.149907 100.871754,37.9013643 99.052409,38.4814453 C97.2330639,39.0615263 95.4532966,39.3515625 93.7130535,39.3515625 C89.2833438,39.3515625 85.9611114,37.110374 83.7462566,32.6279297 L83.1134441,31.4414062 L82.4806316,32.4697266 C82.3224277,32.6806651 82.0851254,33.1157194 81.7687175,33.7749023 C81.4523097,34.4340853 81.1359066,35.1855427 80.8194988,36.0292969 C80.503091,36.8730511 80.2262383,37.7299761 79.9889324,38.6000977 C79.7516265,39.4702192 79.6593423,40.2216765 79.7120769,40.8544922 C79.2374652,41.3291039 78.7364936,41.8828093 78.2091472,42.515625 C77.6818008,43.1484407 77.286297,43.8603476 77.0226238,44.6513672 C76.9171545,45.0732443 76.9698884,45.4687482 77.1808269,45.8378906 C77.0753576,46.3125024 76.8380553,46.6816393 76.4689129,46.9453125 C76.2579743,47.2089857 76.0338555,47.4594715 75.7965496,47.6967773 C75.5592437,47.9340832 75.3614918,48.184569 75.2032879,48.4482422 C75.0978186,48.7119154 75.0319013,48.9755846 75.005534,49.2392578 C74.9791666,49.502931 74.9396162,49.7666002 74.8868816,50.0302734 C74.8868816,50.3994159 74.8341478,50.7421859 74.7286785,51.0585938 C73.8321896,52.9043061 73.1202827,54.1040011 72.5929363,54.6577148 C72.0655899,55.2114285 71.353683,55.4882812 70.4571941,55.4882812 C70.035317,55.4882812 69.349777,55.4091805 68.4005535,55.2509766 C67.7150032,54.5126916 67.0953805,53.4975651 66.5416668,52.2055664 C65.9879531,50.9135678 65.5660823,49.5293043 65.2760418,48.0527344 C64.9860013,46.5761645 64.8541666,45.0864333 64.880534,43.5834961 C64.9069013,42.0805589 65.157387,40.7753962 65.6319988,39.6679688 C65.6319988,39.6152341 65.8429342,39.0878956 66.2648113,38.0859375 C66.6866884,37.0839794 67.2272103,35.7920001 67.8863933,34.2099609 C68.5455763,32.6279218 69.2970336,30.8745213 70.1407879,28.949707 C70.9845421,27.0248927 71.8282836,25.1528411 72.6720379,23.3334961 C73.5157921,21.5141511 74.3199833,19.8398514 75.0846355,18.3105469 C75.8492878,16.7812424 76.4952774,15.6210977 77.0226238,14.8300781 C77.4445009,14.1972625 77.8268213,13.6040067 78.1695965,13.050293 C78.5123716,12.4965793 78.8419582,11.9560573 79.158366,11.4287109 C80.1075895,9.79393714 81.0172484,8.43604056 81.8873699,7.35498047 C82.7574914,6.27392038 84.0362872,5.41699535 85.7237957,4.78417969 C86.8839577,5.25879144 87.7276993,5.81249684 88.2550457,6.4453125 L88.4132488,7.31542969 C88.6241873,7.84277607 88.9405904,8.10644531 89.3624675,8.10644531 C89.9425486,8.26464923 90.4303367,8.40966731 90.8258465,8.54150391 C91.2213562,8.6733405 91.6564105,8.79199166 92.1310222,8.89746094 C92.5001647,9.31933805 92.8429347,9.8203096 93.1593425,10.4003906 C93.5812197,11.0332063 93.989907,11.652829 94.3854168,12.2592773 C94.7809266,12.8657257 95.0973296,13.4721649 95.3346355,14.0786133 C95.5719414,14.6850616 95.703776,15.3046843 95.7301433,15.9375 C95.7565106,16.5703157 95.6378595,17.2294888 95.3741863,17.9150391 L95.4532879,18.7060547 C95.7169611,19.1806664 95.7696949,19.8398395 95.611491,20.6835938 C95.5587563,21.0527362 95.5323894,21.4350566 95.5323894,21.8305664 C95.5323894,22.2260762 95.5851233,22.6611304 95.6905925,23.1357422 C96.639816,23.8740271 97.4835576,24.2431641 98.2218425,24.2431641 C99.0655968,24.2431641 99.843421,24.0454121 100.555339,23.6499023 C101.267256,23.2543926 101.939613,22.8457052 102.572428,22.4238281 C102.994306,22.1074203 103.416176,21.8305676 103.838053,21.5932617 C104.259931,21.3559558 104.681801,21.2109378 105.103678,21.1582031 C106.052902,20.2617143 106.909827,19.4707066 107.674479,18.7851562 C108.439132,18.0996059 109.243323,17.4140659 110.087077,16.7285156 C111.669116,15.4628843 113.198398,14.0918043 114.674968,12.6152344 C116.151537,11.1386645 117.338049,9.29297982 118.234538,7.078125 C118.761884,6.76171717 119.31559,6.60351562 119.895671,6.60351562 C120.475752,6.60351562 121.082191,6.73535024 121.715007,6.99902344 C122.347822,7.26269663 122.954262,7.52636587 123.534343,7.79003906 C123.692546,7.89550834 123.837565,7.97460911 123.969401,8.02734375 C124.101238,8.08007839 124.219889,8.13281224 124.325358,8.18554688 C124.325358,8.71289326 124.536294,9.16113097 124.958171,9.53027344 C125.169109,9.68847735 125.300944,9.79394505 125.353678,9.84667969 C125.406413,9.89941433 125.485514,9.95214817 125.590983,10.0048828 C126.382003,10.4267599 126.882974,10.8486307 127.093913,11.2705078 C127.463055,12.4834045 128.122228,13.4062468 129.071452,14.0390625 C128.965983,14.5664089 128.979166,15.054197 129.111003,15.5024414 C129.242839,15.9506858 129.414224,16.412107 129.625163,16.8867188 L129.783366,17.3613281 C129.836101,17.519532 129.915201,17.7041005 130.020671,17.9150391 L128.517741,17.7568359 L128.755046,19.2597656 C128.860515,19.9980506 128.794598,20.8154252 128.557292,21.7119141 C128.319986,22.6084029 128.043133,23.3203099 127.726725,23.8476562 C127.77946,25.2187569 127.81901,26.2866173 127.845378,27.0512695 C127.871745,27.8159218 127.832195,28.5278287 127.726725,29.1870117 C127.621256,29.8461947 127.476238,30.4658174 127.291667,31.0458984 C127.107096,31.6259795 126.85661,32.2587856 126.540202,32.9443359 C126.75114,36.3193528 126.36882,39.3910994 125.393229,42.159668 C124.417638,44.9282365 123.402512,47.5253785 122.347819,49.9511719 C122.24235,50.2148451 122.123699,50.4785143 121.991862,50.7421875 C121.860025,51.0058607 121.741374,51.2695299 121.635905,51.5332031 C121.161293,51.691407 120.739423,51.862792 120.37028,52.0473633 L119.183757,52.640625 Z M51.0275066,38.0449219 C52.3152735,38.3248712 53.0711253,38.6887998 53.2950847,39.1367188 C53.5190442,39.5846377 53.4350607,40.0745416 53.0431316,40.6064453 C52.6512026,41.138349 52.0913123,41.684242 51.3634441,42.2441406 C50.6355759,42.8040393 49.9357131,43.279946 49.2638347,43.671875 C48.6479462,43.5598953 47.9900752,43.6578761 47.2902019,43.9658203 C46.5903286,44.2737646 45.9324576,44.623696 45.3165691,45.015625 C44.5887009,44.9036453 43.8468463,44.8476562 43.0909832,44.8476562 L40.7814129,44.8476562 C40.3894838,45.9674535 39.9555689,47.0452422 39.479655,48.0810547 C39.0037412,49.1168672 38.3738647,49.9986943 37.5900066,50.7265625 C37.5340167,51.0065118 37.604003,51.2584624 37.7999675,51.4824219 C37.9959321,51.7063813 38.1499019,51.9583319 38.2618816,52.2382812 C37.6459931,52.74219 37.2120782,53.2740857 36.9601238,53.8339844 C36.7081694,54.393883 36.5402023,54.9817678 36.4562175,55.5976562 C36.3722328,56.2135447 36.3162437,56.8014295 36.2882488,57.3613281 C36.2602539,57.9212268 36.1342786,58.4531225 35.9103191,58.9570312 C35.4064103,59.1809907 34.9584982,59.4609358 34.5665691,59.796875 C34.1746401,60.1328142 33.7967142,60.4687483 33.43278,60.8046875 C33.0688459,61.1406267 32.6629255,61.4345691 32.2150066,61.6865234 C31.7670877,61.9384778 31.2071975,62.1204421 30.5353191,62.2324219 C29.359532,61.8404928 28.4077186,61.4625669 27.6798504,61.0986328 C26.9519821,60.7346987 26.1121468,60.3287783 25.1603191,59.8808594 C24.376461,58.8730418 23.9425461,57.8092504 23.8585613,56.6894531 C23.7745765,55.5696559 23.9005518,54.4498754 24.236491,53.3300781 C24.5724302,52.2102809 25.0203423,51.1464894 25.580241,50.1386719 C26.1401396,49.1308543 26.6720353,48.23503 27.1759441,47.4511719 C27.5678732,46.6673138 27.9038073,45.967451 28.1837566,45.3515625 C26.8959898,45.2955726 25.594245,45.3095699 24.2784832,45.3935547 C22.9627214,45.4775395 21.6049876,45.6035148 20.205241,45.7714844 C19.8693018,46.7233121 19.4633814,47.6331337 18.9874675,48.5009766 C18.5115537,49.3688194 17.9376662,50.1386685 17.2657879,50.8105469 C17.209798,51.0904962 17.2937815,51.3424468 17.517741,51.5664062 C17.7417004,51.7903657 17.9096675,52.0423163 18.0216472,52.3222656 C17.4057587,52.8261744 16.9718438,53.3580701 16.7198894,53.9179688 C16.467935,54.4778674 16.299968,55.0517549 16.2159832,55.6396484 C16.1319984,56.227542 16.0620121,56.8154267 16.0060222,57.4033203 C15.9500324,57.9912139 15.8100598,58.5091123 15.5861004,58.9570312 C15.0821916,59.1809907 14.6482767,59.4609358 14.2843425,59.796875 C13.9204084,60.1328142 13.5424825,60.4687483 13.1505535,60.8046875 C12.7586244,61.1406267 12.3387068,61.4345691 11.8907879,61.6865234 C11.442869,61.9384778 10.8829787,62.1204421 10.2111004,62.2324219 C9.03531323,61.8404928 8.09749709,61.4625669 7.3976238,61.0986328 C6.6977505,60.7346987 5.8439179,60.3287783 4.83610036,59.8808594 C4.05224227,58.9290317 3.6323246,57.8792375 3.57633473,56.7314453 C3.52034487,55.5836531 3.66031743,54.4498754 3.99625661,53.3300781 C4.33219579,52.2102809 4.78010797,51.1464894 5.34000661,50.1386719 C5.89990524,49.1308543 6.43180096,48.23503 6.93570973,47.4511719 C6.26383137,47.4511719 5.57796584,47.4651691 4.87809255,47.4931641 C4.17821925,47.521159 3.49235372,47.5631508 2.82047536,47.6191406 C1.98062741,47.1712217 1.36474815,46.6113315 0.972819108,45.9394531 C0.580890065,45.2675748 0.314942203,44.5537147 0.174967545,43.7978516 C0.0349928869,43.0419884 -0.0209961365,42.2721393 0.00699879512,41.4882812 C0.0349937268,40.7044232 0.0489909826,39.9205768 0.0489909826,39.1367188 C0.272950436,38.5208303 0.650876344,38.0449236 1.18278005,37.7089844 C1.71468375,37.3730452 2.28857124,37.0651056 2.90445973,36.7851562 C4.58415563,36.7291664 6.09585926,36.6591801 7.43961598,36.5751953 C8.7833727,36.4912105 10.0991148,36.3932297 11.3868816,36.28125 C11.4428715,36.1692703 11.4848632,36.0292977 11.5128582,35.8613281 C11.5408531,35.6933585 11.5828449,35.553386 11.6388347,35.4414062 C11.5828449,34.6575482 11.7648092,33.6357485 12.1847332,32.3759766 C12.6046571,31.1162046 13.0945611,29.7584708 13.6544597,28.3027344 C12.7026321,28.470704 11.8907912,28.6106765 11.2189129,28.7226562 C10.5470345,28.834636 9.98714426,28.946614 9.53922536,29.0585938 C8.19546864,29.0026039 7.20166347,28.8066423 6.55778005,28.4707031 C5.91389662,28.1347639 5.42399266,27.7288435 5.08805348,27.2529297 C4.7521143,26.7770158 4.52815821,26.2451201 4.41617848,25.6572266 C4.30419876,25.069333 4.13623169,24.4394565 3.91227223,23.7675781 C4.36019114,23.3196592 4.65413351,22.70378 4.79410817,21.9199219 C4.93408283,21.1360638 4.7521185,20.548179 4.24820973,20.15625 C4.80810837,20.0442703 5.31200958,19.7223334 5.75992848,19.1904297 C6.20784739,18.658526 6.37581446,18.2526056 6.26383473,17.9726562 C7.99952049,17.6927069 9.79116924,17.5387371 11.6388347,17.5107422 C13.4865002,17.4827473 15.2501545,17.3847665 16.9298504,17.2167969 C17.5457389,16.0969996 18.0916318,14.6272877 18.5675457,12.8076172 C19.0434595,10.9879466 19.5753552,9.16830337 20.1632488,7.34863281 C20.7511424,5.52896226 21.4789997,3.91927783 22.3468425,2.51953125 C23.2146854,1.11978467 24.3204686,0.279949316 25.6642254,0 C27.3439213,1.56771617 28.6176715,3.23338962 29.4855144,4.99707031 C30.3533573,6.76075101 31.0672173,8.84634213 31.627116,11.2539062 C31.4591464,11.8138049 31.2071958,12.5136677 30.8712566,13.3535156 L29.6954754,16.2929688 C31.0392321,16.2369789 32.3829686,16.2089844 33.7267254,16.2089844 C35.0704821,16.2089844 36.3862241,16.1809899 37.673991,16.125 C38.1778998,14.893223 38.6538065,13.4095139 39.1017254,11.6738281 C39.5496443,9.93814236 40.0675427,8.2444744 40.6554363,6.59277344 C41.2433299,4.94107247 41.9571899,3.49935512 42.7970379,2.26757812 C43.6368858,1.03580113 44.7006773,0.279949316 45.9884441,0 C47.6121501,1.51172631 48.8719032,3.1634025 49.767741,4.95507812 C50.6635788,6.74675375 51.3634416,8.84634213 51.8673504,11.2539062 C51.6993808,11.8138049 51.4334329,12.5556594 51.0694988,13.4794922 C50.7055647,14.4033249 50.2996443,15.4531191 49.8517254,16.6289062 C50.7475632,16.6848961 51.615393,16.7828769 52.455241,16.9228516 C53.2950889,17.0628262 54.0509407,17.2587878 54.7228191,17.5107422 C55.3946975,17.7626966 55.9265932,18.0986307 56.3185222,18.5185547 C56.7104513,18.9384787 56.9344074,19.4843716 56.9903972,20.15625 C57.9982148,20.2682297 58.6840803,20.4641913 59.0480144,20.7441406 C59.4119485,21.0240899 59.6079101,21.3600241 59.635905,21.7519531 C59.6639,22.1438822 59.5659192,22.5777971 59.3419597,23.0537109 C59.1180003,23.5296248 58.9220387,23.9915342 58.7540691,24.4394531 C57.1863529,25.1113315 55.2967234,25.62923 53.0851238,25.9931641 C50.8735242,26.3570982 48.507988,26.623046 45.9884441,26.7910156 C45.3725556,28.5826912 44.8406599,30.1923757 44.392741,31.6201172 C43.9448221,33.0478587 43.6928715,34.1256474 43.6368816,34.8535156 L47.3321941,34.8535156 C47.2762042,35.3574244 47.4721658,35.721353 47.9200847,35.9453125 C48.3680036,36.169272 48.8439103,36.3512363 49.3478191,36.4912109 C49.8517279,36.6311856 50.2996401,36.7991527 50.6915691,36.9951172 C51.0834982,37.1910817 51.1954762,37.5410131 51.0275066,38.0449219 Z M23.2286785,35.3574219 C24.3484757,35.2454421 25.6642178,35.1614586 27.1759441,35.1054688 C28.6876704,35.0494789 30.2553631,34.9934899 31.8790691,34.9375 C31.9910488,34.0416622 32.2849912,32.8938872 32.760905,31.4941406 C33.2368189,30.094394 33.7827119,28.6386794 34.3986004,27.1269531 L29.6534832,27.1269531 C28.1697518,27.1269531 26.812018,27.1549476 25.580241,27.2109375 C24.9643525,28.9466233 24.446454,30.5003187 24.02653,31.8720703 C23.6066061,33.243822 23.3686527,34.2656216 23.3126629,34.9375 L23.2286785,35.3574219 Z" id="#METOO"></path>
            </g>
        </g>
    </g>
</svg>