<?xml version="1.0" encoding="utf-8"?>
<!-- Generator: Adobe Illustrator 19.1.0, SVG Export Plug-In . SVG Version: 6.00 Build 0)  -->
<svg version="1.1" id="Layer_1" xmlns="http://www.w3.org/2000/svg" xmlns:xlink="http://www.w3.org/1999/xlink" x="0px" y="0px"
	 viewBox="0 0 419.7 80" style="enable-background:new 0 0 419.7 80;" xml:space="preserve">
<style type="text/css">
	.st0{fill:#00242C;}
</style>
<g>
	<g>
		<g>
			<path class="st0" d="M12.3,46.3c0,7.6,5.9,10.6,12.7,10.6c4.4,0,11.1-1.3,11.1-7.1c0-6.2-8.6-7.2-17-9.5
				C10.6,38.1,2.1,34.8,2.1,24c0-11.7,11.1-17.3,21.4-17.3c11.9,0,22.9,5.2,22.9,18.4H34.2c-0.4-6.9-5.3-8.7-11.3-8.7
				c-4,0-8.7,1.7-8.7,6.5c0,4.4,2.7,5,17.1,8.7c4.2,1,17,3.7,17,16.7c0,10.5-8.3,18.3-23.8,18.3C11.8,66.7,0,60.4,0.1,46.3
				L12.3,46.3L12.3,46.3z"/>
			<path class="st0" d="M53.7,8.1h11.4v30.7l14.3-14.9h13.5L77.2,39.1l17.4,26.2H80.9L69.5,46.8L65.1,51v14.3H53.7V8.1z"/>
			<path class="st0" d="M119.1,70.5c-2.5,6.7-6.4,9.4-14.3,9.4c-2.3,0-4.6-0.2-7-0.4v-9.4c2.2,0.2,4.4,0.5,6.6,0.4
				c3.9-0.4,5.2-4.5,3.9-7.8L93.8,23.9H106l9.4,28.4h0.2l9.1-28.4h11.8L119.1,70.5z"/>
			<path class="st0" d="M140.5,8.1h11.4v57.2h-11.4V8.1z"/>
			<path class="st0" d="M175.3,23.9h8.3v7.6h-8.3V52c0,3.8,1,4.8,4.8,4.8c1.2,0,2.3-0.1,3.5-0.3v8.9c-1.9,0.3-4.4,0.4-6.6,0.4
				c-7,0-13.1-1.6-13.1-9.9V31.5h-6.9v-7.6h6.9V11.5h11.4L175.3,23.9L175.3,23.9z"/>
			<path class="st0" d="M189.4,23.9h10.7v5.6h0.2c3-4.2,7.3-6.7,12.7-6.7c5.2,0,9.9,1.9,12.1,6.9c2.4-3.6,6.7-6.9,12.5-6.9
				c8.8,0,15.1,4.1,15.1,14.8v27.7h-11.4V41.8c0-5.5-0.5-10.1-7-10.1c-6.4,0-7.6,5.3-7.6,10.5v23.1h-11.4V42.1
				c0-4.8,0.3-10.3-6.9-10.3c-2.2,0-7.7,1.4-7.7,9.5v24h-11.4L189.4,23.9L189.4,23.9z"/>
			<path class="st0" d="M297.9,56.1V34.5c0-9.9-9.9-11.8-18.2-11.8c-9.3,0-18.8,3.2-19.5,13.9h11.4c0.4-4.5,3.2-6.2,7.5-6.2
				c4,0,7.4,0.7,7.4,5.6c0,4.6-6.5,4.4-13.5,5.4c-7,1-14.1,3.2-14.1,12.6c0,8.5,6.3,12.4,14.1,12.4c5,0,10.3-1.4,13.9-5.1
				c0.1,1.4,0.4,2.7,0.8,4h11.5C298.3,63.6,297.9,59.8,297.9,56.1z M286.5,49.3c0,2.5-0.3,9.5-9.2,9.5c-3.7,0-7-1-7-5.3
				c0-4.2,3.2-5.4,6.7-6.1c3.5-0.6,7.5-0.7,9.5-2.4V49.3z"/>
			<path class="st0" d="M317.3,43.5l-13.6-19.6h13l7.3,10.8l7.2-10.8h12.6l-13.6,19.4l15.3,22h-13l-8.7-13.1l-8.7,13.1h-12.7
				L317.3,43.5z"/>
		</g>
	</g>
	<g>
		<g>
			<path class="st0" d="M409.9,24.8l-0.5,1L384.7,3.1c-0.2,1.1-1.2,1.9-2.3,2c-1.1,0.1-2.1-0.6-2.4-1.5L358,30.5l-0.6-0.9l22.4-27.4
				c0,0,0,0,0,0c0.2-1.1,1.2-2,2.3-2.1c1.1-0.1,2,0.5,2.4,1.4c0,0,0,0,0,0L409.9,24.8z"/>
			<path class="st0" d="M419.5,53.3l-1.2-23.8c-0.2-5-3.9-8.9-8.2-8.6l-3.8,0.2l-0.1,0l3.6,3.3c0,0,0.1,0,0.1,0
				c0.8,0,1.4,0.6,1.4,1.4c0,0.8-0.6,1.4-1.4,1.4s-1.4-0.6-1.4-1.4c0-0.2,0-0.3,0.1-0.4l-4.5-4.2l-40.3,2.5l-5.1,6.3
				c0,0.2,0.1,0.3,0.1,0.5c0,0.8-0.6,1.4-1.4,1.4c-0.8,0-1.4-0.6-1.4-1.4c0-0.8,0.6-1.4,1.4-1.4c0,0,0.1,0,0.1,0l4.2-5.2l-0.8,0
				l-4.7,0.3c-4.3,0.3-7.6,4.5-7.3,9.5l1.2,23.8c0.2,5,3.9,8.8,8.2,8.6l53.9-3.3C416.5,62.5,419.8,58.3,419.5,53.3z M356.8,57.8
				l-0.4-6.6l6.4-0.4l0.4,6.6L356.8,57.8z M376.9,57.2c-4.9,0.3-9.8-1.3-10.4-7.2l5.5-0.3c0.2,2.7,2.4,3.6,4.7,3.5
				c1.7-0.1,3.8-0.9,3.7-3.1c-0.1-1.9-2.6-2.3-6.8-3c-3.4-0.6-6.8-1.6-7-5.5c-0.3-5.7,4.3-7.4,8.8-7.7c4.6-0.3,9,1.1,9.7,6.5
				l-5.5,0.3c-0.3-2.4-2.1-2.9-4.1-2.8c-1.3,0.1-3.2,0.5-3.1,2.3c0.1,2.2,3.4,2.3,6.8,2.9c3.4,0.6,6.8,1.7,7.1,5.8
				C386.5,54.7,381.7,56.9,376.9,57.2z M399.7,51.1c2.3-0.1,4.1-1.8,4.4-3.2l5.1-0.3c-1.4,5.3-4.7,7.8-9.5,8.1
				c-6.7,0.4-11.1-4.1-11.4-11c-0.4-6.7,3.8-12,10.2-12.4c7.2-0.5,11,5.7,11,12.6l-15.3,0.9C394.6,49.7,396.5,51.3,399.7,51.1z
				 M398.6,36.9c-3.7,0.2-4.6,3.3-4.6,5l9.5-0.6C402.8,38.3,401.4,36.7,398.6,36.9z"/>
		</g>
	</g>
</g>
</svg>
