<?xml version="1.0" encoding="UTF-8"?>
<svg width="823px" height="424px" viewBox="0 0 823 424" version="1.1" xmlns="http://www.w3.org/2000/svg" xmlns:xlink="http://www.w3.org/1999/xlink">
    <!-- Generator: Sketch 47.1 (45422) - http://www.bohemiancoding.com/sketch -->
    <title>Artboard</title>
    <desc>Created with Sketch.</desc>
    <defs></defs>
    <g id="Page-1" stroke="none" stroke-width="1" fill="none" fill-rule="evenodd">
        <g id="Artboard" fill="#000105">
            <g id="Evolve_Logotype_Primary_Black" transform="translate(52.000000, 54.000000)">
                <polyline id="Fill-1" points="66.214 15.499 31.449 15.499 31.449 32.828 61.614 32.828 61.614 47.055 31.449 47.055 31.449 66.309 66.321 66.309 66.321 80.964 14.868 80.964 14.868 0.951 66.214 0.951 66.214 15.499"></polyline>
                <polyline id="Fill-2" points="678.579 82.461 638.038 0.951 656.758 0.951 678.579 46.413 700.401 0.951 719.227 0.951 678.579 82.461"></polyline>
                <path d="M222.796,138.367 C218.196,143.074 215.95,149.492 215.95,157.729 C215.95,165.858 218.196,172.276 222.796,177.09 C227.395,181.904 233.385,184.257 240.766,184.257 C248.147,184.257 254.03,181.904 258.523,177.09 C263.123,172.276 265.369,165.858 265.369,157.729 C265.369,149.492 263.123,143.074 258.523,138.367 C254.03,133.554 248.147,131.201 240.766,131.201 C233.385,131.201 227.395,133.554 222.796,138.367 Z M270.61,127.885 C278.419,135.372 282.27,145.32 282.27,157.729 C282.27,170.137 278.419,180.085 270.61,187.68 C262.802,195.167 252.854,198.911 240.766,198.911 C228.572,198.911 218.624,195.167 210.815,187.68 C203.006,180.085 199.155,170.137 199.155,157.729 C199.155,145.32 203.006,135.372 210.815,127.885 C218.624,120.29 228.572,116.546 240.766,116.546 C252.854,116.546 262.802,120.29 270.61,127.885 L270.61,127.885 Z" id="Fill-3"></path>
                <polyline id="Fill-4" points="467.237 183.08 502.108 183.08 502.108 197.735 450.656 197.735 450.656 117.722 467.237 117.722 467.237 183.08"></polyline>
                <polyline id="Fill-5" points="40.541 316 0 234.49 18.719 234.49 40.541 279.952 62.363 234.49 81.189 234.49 40.541 316"></polyline>
                <polyline id="Fill-6" points="704.252 249.038 669.487 249.038 669.487 266.367 699.652 266.367 699.652 280.593 669.487 280.593 669.487 299.848 704.359 299.848 704.359 314.502 652.907 314.502 652.907 234.49 704.252 234.49 704.252 249.038"></polyline>
            </g>
        </g>
    </g>
</svg>