<?xml version="1.0" encoding="UTF-8"?>
<svg width="274px" height="24px" viewBox="0 0 274 24" version="1.1" xmlns="http://www.w3.org/2000/svg" xmlns:xlink="http://www.w3.org/1999/xlink">
    <!-- Generator: Sketch 47.1 (45422) - http://www.bohemiancoding.com/sketch -->
    <title>FOOTBALL ADDICTS</title>
    <desc>Created with Sketch.</desc>
    <defs></defs>
    <g id="Page-1" stroke="none" stroke-width="1" fill="none" fill-rule="evenodd">
        <g id="Artboard" transform="translate(-37.000000, -29.000000)" fill="#000000">
            <path d="M37.875,34.69 C37.875,32.9899915 38.3349954,31.7600038 39.255,31 C40.1750046,30.2399962 41.2849935,29.86 42.585,29.86 C46.5250197,29.86 49.7049879,29.9699989 52.125,30.19 L52.125,33.28 L43.665,33.28 C43.0049967,33.28 42.4900018,33.4599982 42.12,33.82 C41.7499981,34.1800018 41.565,34.6899967 41.565,35.35 L41.565,39.82 L50.775,40.03 L50.775,42.94 L41.565,43.15 L41.565,52 L37.875,52 L37.875,34.69 Z M63.525,52.18 C61.3849893,52.18 59.6850063,51.8950028 58.425,51.325 C57.1649937,50.7549972 56.2150032,49.665008 55.575,48.055 C54.9349968,46.444992 54.615,44.0900155 54.615,40.99 C54.615,37.8899845 54.9399967,35.5200082 55.59,33.88 C56.2400032,32.2399918 57.1949937,31.125003 58.455,30.535 C59.7150063,29.9449971 61.4049894,29.65 63.525,29.65 C65.6650107,29.65 67.3699936,29.9449971 68.64,30.535 C69.9100063,31.125003 70.8649968,32.2349919 71.505,33.865 C72.1450032,35.4950082 72.465,37.8699844 72.465,40.99 C72.465,44.0900155 72.1400032,46.444992 71.49,48.055 C70.8399967,49.665008 69.8900062,50.7549972 68.64,51.325 C67.3899937,51.8950028 65.6850108,52.18 63.525,52.18 Z M63.525,48.85 C64.9050069,48.85 65.9599963,48.650002 66.69,48.25 C67.4200036,47.849998 67.9449984,47.0950055 68.265,45.985 C68.5850016,44.8749945 68.745,43.2100111 68.745,40.99 C68.745,38.6899885 68.5800016,36.9700057 68.25,35.83 C67.9199983,34.6899943 67.3950036,33.9300019 66.675,33.55 C65.9549964,33.1699981 64.9050069,32.98 63.525,32.98 C62.1849933,32.98 61.1550036,33.174998 60.435,33.565 C59.7149964,33.955002 59.1850017,34.7149943 58.845,35.845 C58.5049983,36.9750056 58.335,38.6899885 58.335,40.99 C58.335,43.2300112 58.4899984,44.8999945 58.8,46 C59.1100015,47.1000055 59.6249964,47.849998 60.345,48.25 C61.0650036,48.650002 62.124993,48.85 63.525,48.85 Z M84.375,52.18 C82.2349893,52.18 80.5350063,51.8950028 79.275,51.325 C78.0149937,50.7549972 77.0650032,49.665008 76.425,48.055 C75.7849968,46.444992 75.465,44.0900155 75.465,40.99 C75.465,37.8899845 75.7899967,35.5200082 76.44,33.88 C77.0900032,32.2399918 78.0449937,31.125003 79.305,30.535 C80.5650063,29.9449971 82.2549894,29.65 84.375,29.65 C86.5150107,29.65 88.2199936,29.9449971 89.49,30.535 C90.7600063,31.125003 91.7149968,32.2349919 92.355,33.865 C92.9950032,35.4950082 93.315,37.8699844 93.315,40.99 C93.315,44.0900155 92.9900032,46.444992 92.34,48.055 C91.6899967,49.665008 90.7400062,50.7549972 89.49,51.325 C88.2399937,51.8950028 86.5350108,52.18 84.375,52.18 Z M84.375,48.85 C85.7550069,48.85 86.8099963,48.650002 87.54,48.25 C88.2700036,47.849998 88.7949984,47.0950055 89.115,45.985 C89.4350016,44.8749945 89.595,43.2100111 89.595,40.99 C89.595,38.6899885 89.4300016,36.9700057 89.1,35.83 C88.7699983,34.6899943 88.2450036,33.9300019 87.525,33.55 C86.8049964,33.1699981 85.7550069,32.98 84.375,32.98 C83.0349933,32.98 82.0050036,33.174998 81.285,33.565 C80.5649964,33.955002 80.0350017,34.7149943 79.695,35.845 C79.3549983,36.9750056 79.185,38.6899885 79.185,40.99 C79.185,43.2300112 79.3399984,44.8999945 79.65,46 C79.9600015,47.1000055 80.4749964,47.849998 81.195,48.25 C81.9150036,48.650002 82.974993,48.85 84.375,48.85 Z M101.505,33.19 L95.145,33.19 L95.145,29.86 L111.555,29.86 L111.555,33.19 L105.225,33.19 L105.225,52 L101.505,52 L101.505,33.19 Z M114.105,29.86 L122.565,29.86 C126.64502,29.86 128.685,31.7799808 128.685,35.62 C128.685,36.9200065 128.400003,37.9949958 127.83,38.845 C127.259997,39.6950042 126.505005,40.2399988 125.565,40.48 C126.625005,40.7400013 127.529996,41.3149955 128.28,42.205 C129.030004,43.0950045 129.405,44.3199922 129.405,45.88 C129.405,48.080011 128.865005,49.6499953 127.785,50.59 C126.704995,51.5300047 125.085011,52 122.925,52 L114.105,52 L114.105,29.86 Z M122.625,39.22 C123.385004,39.22 123.994998,38.9400028 124.455,38.38 C124.915002,37.8199972 125.145,37.0700047 125.145,36.13 C125.145,34.1699902 124.275009,33.19 122.535,33.19 L117.795,33.19 L117.795,39.22 L122.625,39.22 Z M122.805,48.67 C123.805005,48.67 124.564997,48.4050027 125.085,47.875 C125.605003,47.3449973 125.865,46.4700061 125.865,45.25 C125.865,44.2699951 125.580003,43.5000028 125.01,42.94 C124.439997,42.3799972 123.705004,42.1 122.805,42.1 L117.795,42.1 L117.795,48.67 L122.805,48.67 Z M138.495,29.86 L143.175,29.86 L150.375,52 L146.505,52 L144.795,46.75 L136.785,46.75 L135.105,52 L131.295,52 L138.495,29.86 Z M143.895,43.42 L140.775,33.04 L137.655,43.42 L143.895,43.42 Z M158.055,52 C156.414992,52 155.180004,51.6150039 154.35,50.845 C153.519996,50.0749961 153.105,48.8100088 153.105,47.05 L153.105,29.86 L156.795,29.86 L156.795,46.45 C156.795,47.2700041 156.989998,47.8399984 157.38,48.16 C157.770002,48.4800016 158.304997,48.64 158.985,48.64 L166.335,48.64 L166.335,52 L158.055,52 Z M174.075,52 C172.434992,52 171.200004,51.6150039 170.37,50.845 C169.539996,50.0749961 169.125,48.8100088 169.125,47.05 L169.125,29.86 L172.815,29.86 L172.815,46.45 C172.815,47.2700041 173.009998,47.8399984 173.4,48.16 C173.790002,48.4800016 174.324997,48.64 175.005,48.64 L182.355,48.64 L182.355,52 L174.075,52 Z M198.825,29.86 L203.505,29.86 L210.705,52 L206.835,52 L205.125,46.75 L197.115,46.75 L195.435,52 L191.625,52 L198.825,29.86 Z M204.225,43.42 L201.105,33.04 L197.985,43.42 L204.225,43.42 Z M213.435,29.86 L222.585,29.86 C225.325014,29.86 227.269994,30.7999906 228.42,32.68 C229.570006,34.5600094 230.145,37.3099819 230.145,40.93 C230.145,44.5900183 229.515006,47.3499907 228.255,49.21 C226.994994,51.0700093 225.105013,52 222.585,52 L213.435,52 L213.435,29.86 Z M222.225,48.67 C223.685007,48.67 224.754997,48.0150065 225.435,46.705 C226.115003,45.3949935 226.455,43.4700127 226.455,40.93 C226.455,38.92999 226.305001,37.3700056 226.005,36.25 C225.704998,35.1299944 225.250003,34.3400023 224.64,33.88 C224.029997,33.4199977 223.225005,33.19 222.225,33.19 L217.125,33.19 L217.125,48.67 L222.225,48.67 Z M233.715,29.86 L242.865,29.86 C245.605014,29.86 247.549994,30.7999906 248.7,32.68 C249.850006,34.5600094 250.425,37.3099819 250.425,40.93 C250.425,44.5900183 249.795006,47.3499907 248.535,49.21 C247.274994,51.0700093 245.385013,52 242.865,52 L233.715,52 L233.715,29.86 Z M242.505,48.67 C243.965007,48.67 245.034997,48.0150065 245.715,46.705 C246.395003,45.3949935 246.735,43.4700127 246.735,40.93 C246.735,38.92999 246.585001,37.3700056 246.285,36.25 C245.984998,35.1299944 245.530003,34.3400023 244.92,33.88 C244.309997,33.4199977 243.505005,33.19 242.505,33.19 L237.405,33.19 L237.405,48.67 L242.505,48.67 Z M253.995,29.86 L257.685,29.86 L257.685,52 L253.995,52 L253.995,29.86 Z M269.205,52.18 C267.324991,52.18 265.825006,51.885003 264.705,51.295 C263.584994,50.7049971 262.730003,49.5900082 262.14,47.95 C261.549997,46.3099918 261.255,43.9400155 261.255,40.84 C261.255,37.8999853 261.554997,35.6150082 262.155,33.985 C262.755003,32.3549918 263.634994,31.2250031 264.795,30.595 C265.955006,29.9649969 267.454991,29.65 269.295,29.65 C270.495006,29.65 271.699994,29.7449991 272.91,29.935 C274.120006,30.125001 275.154996,30.3499987 276.015,30.61 L276.015,33.46 C275.414997,33.3399994 274.560006,33.2300005 273.45,33.13 C272.339994,33.0299995 271.205006,32.98 270.045,32.98 C268.724993,32.98 267.710004,33.1849979 267,33.595 C266.289996,34.0050021 265.775002,34.7699944 265.455,35.89 C265.134998,37.0100056 264.975,38.6799889 264.975,40.9 C264.975,43.1200111 265.124999,44.7899944 265.425,45.91 C265.725002,47.0300056 266.224997,47.7999979 266.925,48.22 C267.625004,48.6400021 268.654993,48.85 270.015,48.85 C272.295011,48.85 274.294991,48.7400011 276.015,48.52 L276.015,51.37 C274.194991,51.9100027 271.925014,52.18 269.205,52.18 Z M284.115,33.19 L277.755,33.19 L277.755,29.86 L294.165,29.86 L294.165,33.19 L287.835,33.19 L287.835,52 L284.115,52 L284.115,33.19 Z M303.255,52.18 C302.174995,52.18 300.975007,52.1200006 299.655,52 C298.334993,51.8799994 297.245004,51.720001 296.385,51.52 L296.385,48.61 C298.185009,48.7700008 300.414987,48.85 303.075,48.85 C304.415007,48.85 305.429997,48.6600019 306.12,48.28 C306.810003,47.8999981 307.155,47.210005 307.155,46.21 L307.155,45.16 C307.155,44.3799961 306.935002,43.7800021 306.495,43.36 C306.054998,42.9399979 305.405004,42.73 304.545,42.73 L302.475,42.73 C300.37499,42.73 298.800005,42.2700046 297.75,41.35 C296.699995,40.4299954 296.175,38.9400103 296.175,36.88 L296.175,35.74 C296.175,33.6599896 296.754994,32.1300049 297.915,31.15 C299.075006,30.1699951 300.794989,29.68 303.075,29.68 C304.115005,29.68 305.249994,29.7499993 306.48,29.89 C307.710006,30.0300007 308.764996,30.1899991 309.645,30.37 L309.645,33.28 C306.944987,33.0999991 304.895007,33.01 303.495,33.01 C302.234994,33.01 301.290003,33.2149979 300.66,33.625 C300.029997,34.0350021 299.715,34.7899945 299.715,35.89 L299.715,36.64 C299.715,37.5400045 299.959998,38.189998 300.45,38.59 C300.940002,38.990002 301.684995,39.19 302.685,39.19 L304.995,39.19 C306.855009,39.19 308.269995,39.694995 309.24,40.705 C310.210005,41.7150051 310.695,43.0499917 310.695,44.71 L310.695,46.12 C310.695,48.4200115 310.055006,50.0049956 308.775,50.875 C307.494994,51.7450044 305.655012,52.18 303.255,52.18 Z" id="FOOTBALL-ADDICTS"></path>
        </g>
    </g>
</svg>