<svg xmlns="http://www.w3.org/2000/svg" xmlns:xlink="http://www.w3.org/1999/xlink" width="230" height="50" viewBox="0 0 1582 240"><defs><path id="a" d="M1218.92 102.317h38.29c3.59 0 6.01-.449 7.25-1.345 1.24-.898 1.86-2.657 1.86-5.279 0-6.21-2.27-11.661-6.83-16.353-4.55-4.692-10.14-7.038-16.76-7.038-6.49 0-12.08 2.174-16.77 6.521-4.69 4.347-7.04 9.694-7.04 16.042v7.452zm-17.18 17.181V97.763c0-10.626 4.04-19.803 12.11-27.531 8.07-7.728 17.77-11.592 29.08-11.592 10.77 0 20.08 3.623 27.95 10.867 7.86 7.245 11.8 16.319 11.8 27.221 0 4.002-.49 7.21-1.45 9.626-.97 2.415-2.45 4.139-4.45 5.174-2 1.035-3.87 1.691-5.59 1.967-1.73.276-4.04.414-6.94.414h-45.33v6.21c0 7.59 2.73 13.662 8.18 18.216 5.45 4.554 12.52 6.831 21.21 6.831 4.56 0 8.53-.69 11.91-2.07 3.38-1.38 6.1-2.726 8.17-4.036 2.07-1.312 3.73-1.967 4.97-1.967 1.93 0 3.59.862 4.97 2.588 1.38 1.724 2.07 3.484 2.07 5.278 0 3.174-3.14 6.417-9.42 9.729-6.28 3.312-14.04 4.968-23.29 4.968-13.52 0-24.56-3.691-33.12-11.075-8.55-7.383-12.83-17.077-12.83-29.083zm-63.65 32.292V65.885c0-1.794.79-3.243 2.38-4.347 1.58-1.104 3.62-1.656 6.1-1.656 2.21 0 4.08.552 5.59 1.656 1.52 1.104 2.28 2.553 2.28 4.347v9.729c2.48-4.692 6.14-8.694 10.97-12.006 4.83-3.312 10.21-4.968 16.15-4.968h7.04c1.79 0 3.34.794 4.65 2.38 1.31 1.587 1.97 3.416 1.97 5.486s-.66 3.864-1.97 5.382c-1.31 1.518-2.86 2.277-4.65 2.277h-7.04c-7.04 0-13.18 2.829-18.43 8.487-5.24 5.658-7.86 12.972-7.86 21.942v47.196c0 1.518-.86 2.933-2.59 4.243-1.72 1.312-3.76 1.967-6.11 1.967-2.34 0-4.34-.621-6-1.863-1.65-1.242-2.48-2.691-2.48-4.347zm-104.64-31.878v-53.82c0-1.656.86-3.105 2.59-4.347 1.72-1.242 3.76-1.863 6.1-1.863 2.21 0 4.18.656 5.9 1.967 1.73 1.311 2.59 2.725 2.59 4.243v53.82c0 6.21 2.35 11.799 7.04 16.767 4.69 4.968 10.28 7.452 16.77 7.452 6.34 0 11.86-2.449 16.56-7.349 4.69-4.898 7.03-10.522 7.03-16.87V65.885c0-1.518.87-2.898 2.59-4.14 1.73-1.242 3.76-1.863 6.11-1.863 2.48 0 4.52.586 6.1 1.76 1.59 1.172 2.38 2.587 2.38 4.243v54.027c0 10.626-4.03 19.906-12.11 27.842-8.07 7.934-17.62 11.902-28.66 11.902-11.18 0-20.81-3.968-28.88-11.902-8.07-7.936-12.11-17.216-12.11-27.842zm-63.03 6.831V20.138c0-1.656.9-3.071 2.69-4.243 1.79-1.173 3.72-1.76 5.8-1.76 2.2 0 4.2.587 6 1.76 1.79 1.172 2.69 2.587 2.69 4.243v39.744h26.08c1.52 0 2.76.69 3.73 2.07.96 1.38 1.45 2.967 1.45 4.761s-.49 3.347-1.45 4.658c-.97 1.311-2.21 1.966-3.73 1.966H987.6v53.406c0 5.934 1.28 10.109 3.83 12.524 2.55 2.415 7 3.622 13.35 3.622h6.42c2.34 0 4.17.724 5.48 2.174 1.31 1.449 1.97 3.208 1.97 5.278 0 2.07-.69 3.864-2.07 5.382-1.38 1.518-3.17 2.277-5.38 2.277h-6.42c-22.91 0-34.36-10.419-34.36-31.257zm-104.13-6.831v-53.82c0-1.656.86-3.105 2.59-4.347 1.72-1.242 3.76-1.863 6.1-1.863 2.21 0 4.18.656 5.9 1.967 1.73 1.311 2.59 2.725 2.59 4.243v53.82c0 6.21 2.35 11.799 7.04 16.767 4.69 4.968 10.28 7.452 16.77 7.452 6.34 0 11.86-2.449 16.55-7.349 4.7-4.898 7.04-10.522 7.04-16.87V65.885c0-1.518.87-2.898 2.59-4.14 1.73-1.242 3.76-1.863 6.11-1.863 2.48 0 4.52.586 6.1 1.76 1.59 1.172 2.38 2.587 2.38 4.243v54.027c0 10.626-4.03 19.906-12.11 27.842-8.07 7.934-17.62 11.902-28.66 11.902-11.18 0-20.81-3.968-28.88-11.902-8.07-7.936-12.11-17.216-12.11-27.842zm-74.24 32.085V12.893c0-1.932.79-3.45 2.38-4.554 1.59-1.104 3.41-1.656 5.49-1.656h72.86c1.93 0 3.41.759 4.45 2.277 1.03 1.518 1.55 3.312 1.55 5.382 0 2.346-.52 4.278-1.55 5.796-1.04 1.518-2.52 2.277-4.45 2.277h-63.34v52.578h32.29c1.93 0 3.41.724 4.45 2.174 1.03 1.449 1.55 3.208 1.55 5.278 0 1.794-.52 3.415-1.55 4.865-1.04 1.449-2.52 2.173-4.45 2.173h-32.29v62.514c0 1.932-.87 3.415-2.59 4.45-1.72 1.035-3.76 1.553-6.11 1.553-2.34 0-4.38-.518-6.1-1.553-1.73-1.035-2.59-2.518-2.59-4.45zm-130.843-32.499c0 6.348 2.346 12.04 7.038 17.077 4.693 5.037 10.143 7.556 16.354 7.556 6.071 0 11.522-2.312 16.352-6.935 4.829-4.623 7.249-8.659 7.249-12.109V98.384c0-7.176-2.35-13.006-7.04-17.491-4.694-4.485-10.144-6.728-16.355-6.728-6.348 0-11.867 2.484-16.56 7.452-4.692 4.968-7.038 10.557-7.038 16.767v21.114zm-17.181 0V98.384c0-10.902 3.658-20.252 10.971-28.049 7.315-7.796 16.008-11.695 26.082-11.695 6.21 0 11.661 1.518 16.353 4.554 4.688 3.036 8.278 6.762 10.768 11.178V6.683c0-1.794.82-3.243 2.48-4.347 1.66-1.104 3.73-1.656 6.21-1.656s4.52.552 6.11 1.656c1.58 1.104 2.38 2.553 2.38 4.347V151.79c0 1.656-.83 3.105-2.49 4.347-1.65 1.242-3.65 1.863-6 1.863-2.07 0-3.9-.621-5.49-1.863-1.58-1.242-2.38-2.691-2.38-4.347v-8.28c-2.34 4.416-6.14 8.211-11.381 11.385-5.244 3.174-10.971 4.761-17.181 4.761-9.66 0-18.146-4.071-25.461-12.213-7.313-8.142-10.971-17.457-10.971-27.945zm-78.354-17.181h38.295c3.588 0 6.003-.449 7.245-1.345 1.242-.898 1.863-2.657 1.863-5.279 0-6.21-2.277-11.661-6.831-16.353-4.554-4.692-10.142-7.038-16.766-7.038-6.487 0-12.076 2.174-16.768 6.521-4.692 4.347-7.038 9.694-7.038 16.042v7.452zm-17.181 17.181V97.763c0-10.626 4.036-19.803 12.11-27.531 8.073-7.728 17.767-11.592 29.084-11.592 10.763 0 20.078 3.623 27.944 10.867 7.866 7.245 11.799 16.319 11.799 27.221 0 4.002-.483 7.21-1.449 9.626-.965 2.415-2.45 4.139-4.451 5.174-2.001 1.035-3.863 1.691-5.589 1.967-1.724.276-4.036.414-6.934.414h-45.333v6.21c0 7.59 2.725 13.662 8.177 18.216 5.451 4.554 12.523 6.831 21.217 6.831 4.554 0 8.522-.69 11.903-2.07 3.381-1.38 6.106-2.726 8.177-4.036 2.069-1.312 3.725-1.967 4.967-1.967 1.932 0 3.588.862 4.968 2.588 1.38 1.724 2.07 3.484 2.07 5.278 0 3.174-3.139 6.417-9.419 9.729-6.279 3.312-14.041 4.968-23.287 4.968-13.524 0-24.564-3.691-33.12-11.075-8.555-7.383-12.834-17.077-12.834-29.083zm-82.357 0c0 6.348 2.346 12.04 7.038 17.077 4.692 5.037 10.143 7.556 16.353 7.556 6.073 0 11.523-2.312 16.353-6.935 4.83-4.623 7.245-8.659 7.245-12.109V98.384c0-7.176-2.346-13.006-7.038-17.491-4.692-4.485-10.143-6.728-16.353-6.728-6.348 0-11.868 2.484-16.56 7.452-4.692 4.968-7.038 10.557-7.038 16.767v21.114zm-17.181 0V98.384c0-10.902 3.657-20.252 10.971-28.049 7.314-7.796 16.008-11.695 26.082-11.695 6.21 0 11.661 1.518 16.353 4.554 4.692 3.036 8.28 6.762 10.764 11.178V6.683c0-1.794.828-3.243 2.484-4.347 1.656-1.104 3.726-1.656 6.21-1.656s4.52.552 6.107 1.656c1.587 1.104 2.38 2.553 2.38 4.347V151.79c0 1.656-.827 3.105-2.484 4.347-1.656 1.242-3.657 1.863-6.003 1.863-2.07 0-3.898-.621-5.485-1.863-1.588-1.242-2.381-2.691-2.381-4.347v-8.28c-2.346 4.416-6.14 8.211-11.385 11.385-5.244 3.174-10.971 4.761-17.181 4.761-9.66 0-18.147-4.071-25.461-12.213s-10.971-17.457-10.971-27.945zm-63.652 32.292V65.885c0-1.794.794-3.243 2.381-4.347 1.587-1.104 3.622-1.656 6.106-1.656 2.208 0 4.071.552 5.589 1.656 1.518 1.104 2.277 2.553 2.277 4.347v9.729c2.484-4.692 6.141-8.694 10.971-12.006 4.83-3.312 10.212-4.968 16.146-4.968h7.038c1.794 0 3.347.794 4.658 2.38 1.31 1.587 1.966 3.416 1.966 5.486s-.656 3.864-1.966 5.382c-1.311 1.518-2.864 2.277-4.658 2.277h-7.038c-7.038 0-13.179 2.829-18.423 8.487-5.244 5.658-7.866 12.972-7.866 21.942v47.196c0 1.518-.862 2.933-2.587 4.243-1.726 1.312-3.761 1.967-6.107 1.967s-4.347-.621-6.003-1.863c-1.656-1.242-2.484-2.691-2.484-4.347zm-84.559-32.292c0 6.486 2.346 12.213 7.038 17.181 4.692 4.968 10.212 7.452 16.56 7.452 6.486 0 12.075-2.519 16.767-7.556s7.038-10.729 7.038-17.077V98.384c0-6.21-2.346-11.799-7.038-16.767s-10.281-7.452-16.767-7.452c-6.486 0-12.04 2.484-16.663 7.452-4.623 4.968-6.935 10.557-6.935 16.767v21.114zm-17.181 0V98.384c0-10.626 4.037-19.906 12.109-27.842 8.074-7.935 17.63-11.902 28.67-11.902 11.04 0 20.631 3.933 28.773 11.799s12.213 17.181 12.213 27.945v21.114c0 10.488-4.105 19.803-12.316 27.945-8.212 8.142-17.768 12.213-28.67 12.213-10.902 0-20.424-4.037-28.566-12.109-8.142-8.073-12.213-17.423-12.213-28.049zm-84.352 0v-20.7c0-11.868 3.484-21.528 10.454-28.98 6.969-7.452 17.215-11.178 30.739-11.178 8.556 0 15.766 1.518 21.632 4.554 5.864 3.036 8.797 6.279 8.797 9.729 0 1.932-.725 3.829-2.173 5.693-1.45 1.863-3.14 2.794-5.072 2.794-.552 0-2.933-1.207-7.142-3.622-4.209-2.415-9.142-3.623-14.8-3.623-8.28 0-14.559 2.139-18.837 6.417-4.278 4.278-6.417 10.35-6.417 18.216v20.7c0 16.422 8.487 24.633 25.461 24.633 5.796 0 10.833-1.242 15.111-3.726 4.278-2.484 6.762-3.726 7.452-3.726 2.208 0 4.037.897 5.485 2.691 1.45 1.794 2.174 3.657 2.174 5.589 0 3.45-3.036 6.762-9.108 9.936-6.072 3.174-13.524 4.761-22.356 4.761-13.662 0-23.977-3.691-30.946-11.075-6.97-7.383-10.454-17.077-10.454-29.083zm-78.556-17.181h38.295c3.588 0 6.003-.449 7.245-1.345 1.242-.898 1.863-2.657 1.863-5.279 0-6.21-2.277-11.661-6.831-16.353-4.554-4.692-10.143-7.038-16.767-7.038-6.486 0-12.075 2.174-16.767 6.521-4.692 4.347-7.038 9.694-7.038 16.042v7.452zm-17.181 17.181V97.763c0-10.626 4.036-19.803 12.11-27.531 8.073-7.728 17.767-11.592 29.083-11.592 10.764 0 20.079 3.623 27.945 10.867 7.866 7.245 11.799 16.319 11.799 27.221 0 4.002-.483 7.21-1.449 9.626-.966 2.415-2.449 4.139-4.45 5.174-2.002 1.035-3.864 1.691-5.59 1.967-1.725.276-4.036.414-6.934.414h-45.333v6.21c0 7.59 2.725 13.662 8.177 18.216 5.451 4.554 12.523 6.831 21.217 6.831 4.554 0 8.521-.69 11.903-2.07 3.381-1.38 6.106-2.726 8.176-4.036 2.07-1.312 3.726-1.967 4.968-1.967 1.932 0 3.588.862 4.968 2.588 1.38 1.724 2.07 3.484 2.07 5.278 0 3.174-3.139 6.417-9.419 9.729-6.278 3.312-14.041 4.968-23.287 4.968-13.524 0-24.564-3.691-33.12-11.075-8.556-7.383-12.834-17.077-12.834-29.083zM18.085 76.442h26.703c19.044 0 28.566-9.039 28.566-27.117 0-17.94-9.522-26.91-28.566-26.91H18.085v54.027zM.697 151.79V12.686c0-1.656.587-3.036 1.76-4.14 1.172-1.104 2.656-1.725 4.45-1.863h37.881c13.8 0 24.909 3.209 33.327 9.626s12.627 17.008 12.627 31.774c0 22.77-10.281 36.225-30.843 40.365l30.636 58.167c.552.966.828 1.932.828 2.898 0 2.208-1.104 4.244-3.312 6.106-2.208 1.863-4.554 2.795-7.038 2.795-2.898 0-5.52-2.277-7.866-6.831L41.89 90.932H18.085v60.858c0 1.932-.862 3.45-2.587 4.554-1.726 1.104-3.761 1.656-6.107 1.656s-4.381-.552-6.106-1.656C1.56 155.24.697 153.722.697 151.79z"></path></defs><g fill="none" fill-rule="evenodd"><use fill="#222" xlink:href="#a" transform="translate(299 38)"></use><path fill="#00B34E" d="M128 102c9.941 0 18 8.059 18 18s-8.059 18-18 18-18-8.059-18-18 8.059-18 18-18z"></path><path fill="#0070CC" d="M238 102c9.941 0 18 8.059 18 18s-8.059 18-18 18-18-8.059-18-18 8.059-18 18-18z"></path><path fill="#042E85" d="M.06 121.48C.813 130.73 8.557 138 18 138c9.941 0 18-8.059 18-18s-8.059-18-18-18C8.557 102 .813 109.271.06 118.52v2.96zm129.29 118.46c7.652-.683 13.65-7.111 13.65-14.94v-54c0-8.284-6.716-15-15-15-8.284 0-15 6.716-15 15v54c0 7.829 5.998 14.257 13.65 14.94h2.7z"></path><path fill="#0070CC" d="M198 196c0 8.284-6.716 15-15 15-8.284 0-15-6.716-15-15V45c0-8.284 6.716-15 15-15 8.284 0 15 6.716 15 15v151z"></path><path fill="#042E85" d="M88 196c0 8.284-6.716 15-15 15-8.284 0-15-6.716-15-15V45c0-8.284 6.716-15 15-15 8.284 0 15 6.716 15 15v151z"></path><path fill="#0070CC" d="M143 69c0 8.284-6.716 15-15 15-8.284 0-15-6.716-15-15V15c0-8.284 6.716-15 15-15 8.284 0 15 6.716 15 15v54z"></path></g></svg>
